<?xml version="1.0" standalone="no"?>
<!DOCTYPE svg PUBLIC "-//W3C//DTD SVG 20010904//EN"
 "http://www.w3.org/TR/2001/REC-SVG-20010904/DTD/svg10.dtd">
<svg version="1.0" xmlns="http://www.w3.org/2000/svg"
 width="1366.000000pt" height="1366.000000pt" viewBox="0 0 1366.000000 1366.000000"
 preserveAspectRatio="xMidYMid meet">
<metadata>
Created by potrace 1.14, written by Peter Selinger 2001-2017
</metadata>
<g transform="translate(0.000000,1366.000000) scale(0.100000,-0.100000)"
fill="#000000" stroke="none">
<path d="M8516 10638 c4 -6 17 -8 30 -5 15 3 24 0 24 -8 0 -10 -22 -13 -82
-12 -65 2 -82 5 -80 16 2 11 -30 12 -200 6 -244 -8 -250 -9 -265 -18 -7 -5
-13 -5 -13 0 0 11 -90 14 -360 11 -14 0 -59 1 -100 2 -41 1 -95 -1 -120 -5
-82 -12 -115 -13 -129 -1 -11 8 -13 8 -7 -1 5 -9 0 -13 -14 -13 -15 0 -20 5
-17 14 4 9 1 13 -6 11 -7 -3 -66 -7 -132 -10 -189 -9 -214 -11 -219 -16 -3 -3
-31 -2 -63 1 -32 3 -123 5 -203 4 -120 0 -147 2 -157 15 -10 14 -14 14 -25 2
-8 -8 -8 -11 -1 -7 6 3 14 3 17 -2 5 -9 -131 -8 -140 1 -4 3 -14 2 -24 -3 -10
-5 -20 -7 -23 -4 -7 8 -77 11 -77 4 0 -5 -238 -4 -250 0 -3 1 -9 2 -13 1 -4
-1 -27 -4 -50 -7 -23 -2 -55 -7 -71 -10 -15 -2 -35 1 -44 8 -24 21 -436 22
-727 3 -116 -7 -229 -7 -252 0 -14 5 -23 3 -23 -3 0 -13 -169 -8 -179 5 -6 9
-241 12 -241 3 0 -3 -45 -5 -100 -5 -55 0 -100 -3 -100 -6 0 -3 -44 -3 -97 -1
-54 2 -128 4 -165 5 -44 1 -65 5 -61 11 3 6 0 5 -8 -1 -14 -14 -51 -17 -63 -6
-13 13 -38 12 -33 -2 4 -10 -3 -11 -29 -5 -19 4 -36 5 -38 1 -4 -6 -177 -6
-403 2 l-133 5 -1 -57 c-1 -31 -2 -80 -3 -108 0 -29 -5 -53 -10 -53 -5 0 -4
-6 1 -12 11 -15 11 -258 0 -275 -5 -7 -4 -13 0 -13 7 0 9 -97 3 -125 -1 -5 -1
-12 0 -15 5 -14 4 -70 -2 -70 -4 0 -3 -13 2 -29 4 -16 6 -31 4 -33 -6 -6 -6
-60 -1 -88 14 -69 18 -142 8 -136 -6 4 -11 2 -11 -3 0 -6 4 -11 10 -11 12 0 9
-22 -5 -32 -6 -5 -6 -8 1 -8 15 0 8 -141 -7 -151 -8 -5 -8 -8 0 -13 8 -5 8
-13 1 -27 -13 -24 -10 -129 3 -129 5 0 4 -6 -2 -14 -7 -8 -8 -17 -3 -20 10 -6
9 -56 -1 -73 -4 -6 -3 -14 2 -17 5 -4 6 -18 2 -34 -6 -22 -6 -253 0 -522 0
-25 0 -65 -2 -90 -1 -25 1 -55 5 -67 4 -12 2 -24 -3 -27 -5 -4 -6 -18 -2 -34
5 -15 5 -36 1 -47 -4 -11 -5 -24 -1 -30 10 -17 9 -529 -2 -542 -5 -8 -6 -13 0
-13 7 0 8 -72 3 -205 0 -5 2 -84 6 -175 4 -91 6 -192 6 -225 -2 -127 -9 -245
-15 -251 -3 -4 -2 -14 3 -24 5 -10 6 -20 3 -24 -9 -8 -7 -221 1 -235 4 -6 2
-11 -4 -11 -6 0 -8 -5 -4 -11 4 -7 8 -75 10 -153 3 -151 3 -208 2 -721 0 -181
0 -377 1 -435 0 -58 0 -159 0 -225 -1 -384 1 -1342 4 -1754 l2 -205 345 1
c494 0 860 7 860 15 0 4 7 5 16 1 23 -9 86 -10 116 -2 14 4 29 4 32 1 4 -3 39
-5 79 -4 39 2 110 2 157 1 131 -1 163 -1 195 0 17 1 108 0 203 -3 122 -3 170
-1 166 6 -5 7 -2 8 7 2 16 -10 481 -15 475 -5 -3 4 37 5 87 2 80 -3 420 -4
657 -1 41 0 83 0 93 0 53 -1 76 -1 187 3 41 2 89 0 106 -4 18 -3 38 -3 45 2 7
4 17 5 22 2 6 -3 62 -5 126 -4 107 2 129 2 164 1 6 0 23 1 37 3 14 2 33 -1 43
-5 9 -5 17 -5 17 -1 0 4 735 8 1633 8 897 0 1640 1 1649 3 17 4 20 216 20
1492 0 206 4 330 10 338 7 8 7 12 -2 12 -9 0 -10 58 -6 248 4 136 6 288 6 337
-2 112 -2 372 0 615 1 255 1 248 4 500 2 124 0 230 -5 236 -9 11 -8 144 2 144
5 0 8 89 9 290 0 36 -2 130 -4 210 -5 170 -6 341 -3 648 1 123 -1 226 -5 228
-4 3 -3 15 1 27 5 12 5 33 2 47 -4 14 -5 36 -3 50 6 42 12 244 15 447 1 106 5
193 10 193 8 0 2 368 -7 377 -3 3 -1 14 4 24 6 10 7 20 2 23 -9 5 -8 53 1 63
4 3 2 12 -3 19 -12 14 -10 36 5 46 6 5 6 8 -1 8 -7 0 -9 16 -5 48 13 102 4
381 -12 393 -8 6 -11 56 -8 148 1 27 4 31 14 22 12 -9 14 18 13 160 l0 171
-131 -6 c-71 -4 -154 -8 -182 -10 -29 -3 -53 -1 -53 3 0 4 -21 6 -47 6 -27 -1
-52 2 -58 5 -5 4 -17 8 -25 8 -288 10 -315 10 -322 -1 -10 -16 -130 -17 -146
0 -12 12 -117 12 -202 0 -14 -2 -39 -1 -57 3 -17 4 -35 4 -40 -1 -4 -4 -50 -9
-101 -10 -51 -2 -95 -6 -97 -9 -2 -3 -39 -4 -82 -3 -43 2 -121 5 -173 7 -52 2
-106 6 -119 11 -35 11 -281 14 -275 3z m94 -12 c0 -11 -19 -15 -25 -6 -3 5 1
10 9 10 9 0 16 -2 16 -4z m50 -6 c0 -5 -5 -10 -11 -10 -5 0 -7 5 -4 10 3 6 8
10 11 10 2 0 4 -4 4 -10z m-2966 -8 c2 -4 -5 -9 -17 -9 -17 -2 -19 0 -7 7 18
12 18 12 24 2z"/>
</g>
</svg>
